<svg width="41" height="70" viewBox="0 0 41 70" xmlns="http://www.w3.org/2000/svg" xmlns:xlink="http://www.w3.org/1999/xlink"><script xmlns="" src="moz-extension://b7d8ea5e-85cd-4cc7-abea-d07eb8926abd/js/elephant.js"/>
    <defs>
        <path id="5nt29nujaa" d="M0 0h39.684v69H0z"/>
    </defs>
    <g fill="none" fill-rule="evenodd">
        <g transform="translate(.97 .205)">
            <mask id="g8utrf459b" fill="#fff">
                <use xlink:href="#5nt29nujaa"/>
            </mask>
            <path d="M38.806 23.78c.038-.18.13-.638-.068-.684-.11-.023-.1.457-.183.684-.234.641-1.047.648-1.715.89-.183.067-.385.2-.548.16-.141-.035-.368-.348-.389-.548-.022-.212.034-.475.16-.593.133-.057.29-.102.389-.091-.016.18-.069.551.068.57.188-.055.028-.459.16-.57.22.01.397.392.583.369.05-.008-.048-.233-.108-.345-.111-.208-.288-.387-.52-.412-.22-.023-.474.103-.686.205-.193.093-.469.186-.457.411-.014.113.174.039.182.069-.14.397.058.733.183 1.003-.12.182-.38.356-.64.183-.2-.132-.299-.62-.411-.981a4.313 4.313 0 0 1-.206-1.688c.02-.252.132-.485.229-.753.123-.342.073-.73.228-.958.129-.19.449-.192.435-.434-.28.038-.724.02-.892-.182a15.83 15.83 0 0 0 2.217-1.689c.016-.013.03-.011.046.023.335.668.712 1.45 1.097 2.259.377.79.901 1.506 1.098 2.258.088.337-.045.748-.252.844m-5.76-3.992c-.606-.041-1.232-.5-1.6-.89-.296-.312-.458-.68-.55-1.163 2.383-.302 3.955-2.026 4.961-3.628.725.387 1.291 1.18 1.212 2.145-.057.697-.498 1.416-.892 1.87-.347.402-.888.768-1.348 1.05-.483.296-1.18.657-1.783.616m-2.31-2.806c-.61-.032-1.166-.489-1.577-.776.252-.22.465-.395.738-.644.162-.149.39-.405.497-.542.312-.228.626-.425.914-.662.984-.807 1.998-2.39 1.578-4.312-.001-.039.017-.059.045-.068 1.167.378 1.988 1.099 2.286 2.373.06.257.147.56.115.82-.059.473-.426 1.026-.71 1.392a6.847 6.847 0 0 1-2.285 1.917c-.452.234-1.082.53-1.6.502m-2.012-3.377c-.063.873-.389 1.572-.732 2.282-.66-2.542-2.79-3.618-5.12-4.495.465-.77.698-2.217.366-3.308 1.596-.133 3.056.803 3.909 1.643.42.413.845.996 1.074 1.46.31.63.562 1.593.503 2.418m-.229 7.963c.01 1.613-.748 2.84-1.577 3.764-.858.957-1.974 1.636-3.155 2.167-2.407 1.084-5.905 1.474-9.28 1.073.234-.337.601-.738.776-1.21.423.071.828.12 1.235.069a1.34 1.34 0 0 0 .366-.114c.125.028.364.038.548 0 .514-.106 1.045-.562 1.532-.73.065.152.19.294.343.388.74.449 1.79.26 2.217-.251a2.57 2.57 0 0 0 .366-.57c.049-.115.038-.257.091-.366.108-.22.449-.497.595-.776.052-.1.059-.218.114-.319.114-.207.336-.32.411-.502.04-.092.025-.233.07-.342.058-.147.207-.234.25-.365.18-.534-.177-1.007-.388-1.3 2.129-.576 3.863-1.544 4.755-3.354.365.784.725 1.65.731 2.738m-1.463 12.661c.025.341-.05.703-.16 1.05-.58-1.073-1.491-2.036-2.789-2.51a5.264 5.264 0 0 0-1.028-.273c-2.368-.314-4.164.539-5.19 1.802.19-1.16.65-2.091 1.372-2.738.306-.274.68-.592 1.052-.775.64-.317 1.41-.47 2.286-.57.458-.054 1.124.036 1.6.182 1.64.503 2.718 1.885 2.857 3.832m-.64 4.769c-.1-.668-.425-1.148-.823-1.575-.635-.68-1.762-1.258-3.04-1.391-1.805-.188-3.687-.173-4.778.798a3.928 3.928 0 0 1 1.257-2.35 4.46 4.46 0 0 1 2.858-1.186c2.112-.08 3.875 1.303 4.55 2.943.308.752.372 1.965-.024 2.76m-1.12 1.871c-.18.107-.512.111-.754.137-1.367.149-2.72-.074-4.024-.296a30.699 30.699 0 0 1-2.972-.639c-.323-.548-.132-1.29.16-1.802.464-.814 1.633-1.4 2.652-1.483.64-.052 1.389.02 2.035.114 1.034.15 1.92.515 2.492 1.095.368.373.845 1.064.845 1.802 0 .32-.167.916-.434 1.072m-.526 4.814c-.358.5-.956 1.014-1.6 1.255-1.274.476-2.872.144-3.932-.342-.707-.325-1.339-.842-1.714-1.415-.305-.464-.595-1.137-.663-1.802-.101-.985.2-1.648.434-2.35-.001-.039.017-.059.046-.068 2.378.516 5.342 1.294 8.23.775.365 1.562-.122 3-.8 3.947m-1.852 4.426c-.526.538-1.255 1.058-2.15 1.164-1.337.158-3.06-.521-3.771-1.323-.53-.597-.908-1.462-.983-2.373-.078-.94.249-1.739.503-2.396.02-.004.021.01.023.023.766 1.545 2.422 2.617 4.595 2.784 1.182.09 2.322-.091 3.086-.594-.28 1.158-.645 2.041-1.303 2.715m-3.36 6.685c-.132.791-.224 1.602-.39 2.35-.16.726-.365 1.556-.662 2.122-.254.48-.86 1.181-1.35 1.46-.976.557-2.221.11-2.742-.434-.456-.476-.766-1.354-.823-2.099-.062-.793.215-1.562.48-2.122.192-.406.438-.85.663-1.277.212-.405.576-.966.617-1.392.107-1.11.197-1.935.617-2.67.313-.547.815-.925 1.166-1.482.845.54 1.893.879 3.246.913a157.44 157.44 0 0 0-.823 4.63m-5.692 5.43c.537.746 2.018 1.421 3.315.913-.93.79-3.076.194-3.315-.912m.8 4.905c-.076.247-.794.496-1.097.547-1.286.22-2.561-.013-3.453-.442-.224-.108-.505-.25-.568-.365-.069-.125-.063-.468-.067-.71-.019-.982.107-1.996.224-2.977.151-1.268.155-2.497.526-3.56.644.361 1.74.508 2.698.343.189 1.447.363 2.907 1.326 3.582.136 1.01.426 1.985.453 3.118.003.147-.004.34-.042.464m-4.846.365c-.091-.076-.037-.082.068-.023.965.617 3.153.86 4.39.32-1.095.846-3.538.389-4.458-.297m-.549-10.267c.9.697 2.789.966 4.16.525-.178.384-.318.808-.388 1.3-1.805.49-3.294-.483-3.772-1.825m-.914-3.194c.698.606 1.768 1.102 3.04 1.187 1.27.085 2.359-.154 3.2-.593-.028.604-.284 1.067-.525 1.528-.223.424-.398.57-.938.753-1.382.471-2.985-.046-3.771-.753-.483-.56-.886-1.2-1.03-2.099-.006-.04.022-.047.024-.023m-.298-2.486c.092.057.223.153.343.228 1.567.969 4.8 1.188 6.493.114.246-.156.44-.367.66-.527.016-.011.046-.035.052-.04.426-.235-.173.522-.324.772-.2.332-.309.827-.48 1.14-.199.367-.73.609-1.166.8-2.291 1.002-5.383-.253-5.578-2.487m-.868-6.092.023.023c1.33 1.77 5.86 2.101 8.07.935-.152 1.196-.002 2.413.434 3.217-.356.609-.731 1.115-1.326 1.483-1.815 1.123-5.095.666-6.241-.798-.863-1.103-1.315-2.984-.96-4.86m-.069-6.502c.091-.247.264-.455.343-.707.869 1.038 2.119 1.766 3.795 2.053 1.713.293 3.655.094 5.395-.16-.014.263-.173.487-.252.73-.244.762-.36 1.637-.32 2.715.006.145.027.3.046.434-.053.095-.183.285-.274.456-.21.396-.24.556-.595.821-.14.106-.3.23-.411.297-1.69 1.013-5.268.79-6.675-.41a4.99 4.99 0 0 1-.709-.822c-.867-1.344-.967-3.715-.343-5.407m9.739-1.186c-.145.357-.327.953-.275 1.46-2.965.613-6.56.545-8.206-1.346-.35-.4-.65-.824-.87-1.37-.223-.554-.402-1.221-.388-1.915.014-.69.292-1.45.526-1.734.003.002.014.012.023.022.917 1.033 2.328 1.601 3.955 1.917 1.606.312 3.443.59 5.303.456.015.16.069.396.137.548a4.808 4.808 0 0 0-.251 1.483c0 .152.008.308.046.479m-9.922-7.712c1.671.51 3.278-.249 4.16-1.026.292.132.606.22 1.007.25.344.027.67-.014 1.006-.068.205.054.593.118.891.16 2.078.296 4.584.318 6.675-.068 2.375-.439 4.472-1.167 5.944-2.419.02-.004.022.01.023.023.386 1.127.247 2.827-.206 3.764-.29-.089-.477-.385-.731-.547-2.164-1.379-5.457-.695-7.041.753-.47.43-.816.972-1.143 1.528-.345.585-.512 1.273-.618 2.03-2.147.016-4.144-.213-5.806-.66-2.032-.548-3.456-1.798-4.16-3.72m-1.075-1.62c-.915-1.202-1.186-3.322-.434-4.973.47-1.034 1.157-1.999 2.446-2.076.878-.053 1.478.355 2.103.616-.608 1.853-.544 4.928.343 6.434-.524.425-1.241.878-2.126.935-.964.062-1.788-.466-2.332-.935m-4.298-3.263c-.044-.543.089-1.197.275-1.665.478-1.209 1.88-2.23 3.314-2.35a2.36 2.36 0 0 1 .732.045c.027.089-.132.179-.229.274-.635.626-1.171 1.615-1.349 2.715-.225 1.4-.098 3.03.389 4.084-1.952.05-2.99-1.362-3.132-3.103m.892-7.21c.59-.474 1.597-.925 2.652-.98 1.595-.084 3.076.707 3.863 1.597.588.665.996 1.484 1.189 2.464-.723-.322-1.465-.584-2.492-.502-.168.013-.364.078-.526.068-.186-.01-.376-.126-.549-.16a7.056 7.056 0 0 0-1.737-.113c-1.795.142-3.115 1.352-3.749 2.692-.771-1.918.19-4.134 1.349-5.065m5.806-4.586c.159-.019.338-.013.503 0 2.007.16 3.825 1.355 4.595 2.806.768 1.448.1 3.329-.823 4.472a3.018 3.018 0 0 0-1.577.32 4.98 4.98 0 0 0-.366-1.506c-.896-2.177-3.315-3.76-6.492-3.24.668-1.718 2.051-2.599 4.16-2.852M20.77 23.05c.268.172.997.71 1.257 1.073.338.471-.112.722-.343 1.072-.198-.228-.447-.43-.686-.639-.222-.194-.663-.587-.754-.502-.086.114.353.507.594.776.159.176.6.515.617.776.016.233-.487.845-.64.958a.868.868 0 0 1-.32.137c-.3.04-1.09-.141-1.051-.434.021-.163.366-.289.503-.32.25.146.217.575.548.64.144-.186-.13-.298-.16-.457.12.017.235.125.343.023.013-.235-.253-.26-.388-.342-.15-.09-.35-.274-.435-.274-.187.021-.281.145-.457.247-.164.095-.438.266-.545.324-.548.296-1.708.996-2.221.296-.112.04-.089.216-.114.342-.45.066-1.022.072-1.303-.16-.432-.355-.39-1.077-.526-1.71-.264.445-.026.923-.092 1.46-.066.54-.444 1.246-.845 1.62-.294.273-.846.484-1.35.501-.583.02-1.323-.25-1.6-.661-.16-.238-.229-.69-.297-1.072-.38-2.135-.475-5.12 1.783-5.293 1.077-.083 1.587.517 2.012 1.163.22.334.423.522.526.936.376-.233 1.06-.614 1.554-.32.094.056.16.252.252.274.22.051.571-.344.754-.48.27-.198.53-.358.732-.478.669-.4 1.229-.743 2.012-.936-.031-.121-.116-.189-.275-.182.625-.482 1.217-.02 1.76.41.514.407 1.099.52.983 1.187-.349-.202-.666-.483-1.005-.73-.323-.235-.995-.635-1.166-.48-.05.126.35.267.548.388.355.216.71.555 1.052.822.176.137.388.28.503.41.197.224.128.513-.114.708-.29-.424-.981-.962-1.464-1.255-.18-.11-.496-.28-.685-.114-.054.053.263.142.503.296m2.263-.228c.034.158.048.427-.069.502-.081.006-.097-.01-.137-.068.038-.153.109-.272.137-.434.014-.081.022-.16.069 0m-12.07-10.631c.173-.043.377-.095.503-.114.201.19.411.357.754.57.299.725.902 1.492 1.737 1.666.142.029.42.053.457-.046.02-.06-.144-.16-.255-.22-.167-.09-.35-.166-.499-.282-.234-.183-.455-.393-.549-.707.178.085.434.195.732.296.18.061.706.264.754 0 .039-.211-.465-.381-.48-.388-.593-.269-1.162-.575-1.577-.958-.575-.53-1.34-1.292-1.257-2.51.06-.902.614-1.738 1.166-2.19.348-.285.697-.302.708-.41-.011-.126-.326-.069-.571-.4-.142-.19-.158-.594-.137-.923.069-1.11.631-2.122 1.348-2.807.371-.354 1.091-.747 1.578-.958.157-.068.471-.142.434-.228-.084-.135-.4-.087-.572-.068.218-.875 2.054-.993 2.332-.092-.149-.03-.43-.026-.526.069-.074.097.482.214.732.296.769.254 1.412.556 1.92 1.118.482.534 1.333 1.709 1.257 2.784a3.216 3.216 0 0 1-.114.707c.114.087.247.207.366.32.578.544 1.235 1.417 1.303 2.509.085 1.377-.744 2.25-1.486 2.875-.25.211-.712.471-.777.661-.073.224.552-.015.754-.114.018.34-.173.548-.36.76-.109.124-.348.331-.28.404.11.125.697-.156.983-.49.234-.275.25-.602.297-.925.18-.11.309-.201.458-.296.14.045.4.137.594.205.557.195 1.181.486 1.623.707.681.342 1.393.759 1.852 1.278.53.6 1.038 1.59 1.143 2.532.036.33-.025.646-.092.913-.25.998-1.003 1.872-1.737 2.395-.94.67-2.106.966-3.27 1.323-.594-.397-1.094-.886-1.942-.82-.596.045-1.127.442-1.646.73-.232.127-.496.288-.755.433-.257.144-.58.448-.8.479-.608.085-1.338-.128-1.92-.16-.427-.547-.901-1.047-1.623-1.3.41-.782.864-1.483.937-2.578.108-1.602-.253-2.53-.983-3.423-.903-1.105-2.226-1.909-3.932-2.19.387-.162.938-.314 1.418-.433m18.425-3.742c1.01 1.005 1.955 2.902 1.189 4.768-.28.681-.709 1.17-1.212 1.712-.02-.005-.022.008-.023.022-.033-.01.003-.02 0-.045.683-2.584-.293-4.7-1.691-5.978-.763-.696-1.668-1.295-2.835-1.597 1.786-.868 3.58.132 4.572 1.118m2.903 1.985c.085 1.165-.267 1.9-.754 2.555.1-.342.195-1.068.16-1.597-.056-.836-.313-1.485-.64-2.121-.324-.63-.773-1.105-1.166-1.575 1.372.045 2.301 1.38 2.4 2.738m7.384 12.57c-.05-.452-.299-.908-.503-1.345-.63-1.348-1.29-2.282-1.874-3.696.312-.486.55-.992.594-1.597.103-1.438-.533-2.386-1.349-2.92a2.515 2.515 0 0 0-.366-.21 4.372 4.372 0 0 0-.022-.475c-.106-1.025-.386-1.786-.915-2.395-.57-.657-1.315-1.203-2.515-1.278-.547-1.174-1.27-2.003-2.72-2.122a5.804 5.804 0 0 0-.869.023c-.137-.06-.345-.19-.548-.296-.453-.236-1.09-.494-1.646-.548-1.33-.128-2.329.233-3.132.639a6.657 6.657 0 0 0-.623.382c-.114.011-.197-.006-.297 0a5.864 5.864 0 0 0-.474-.679c-.183-.225-.42-.517-.572-.661.015-.16.01-.355 0-.502-.037-.501-.165-.881-.32-1.255-.605-1.464-1.617-2.485-3.223-3.057C17.963.313 17.256-.06 16.266.008c-.774.053-1.257.341-1.554.753a1.705 1.705 0 0 0-.252.502c-.16.08-.428.234-.594.342-1.41.912-2.556 2.63-2.286 4.973-.45.513-.959 1.185-1.143 2.03-.207.95-.067 1.989.297 2.716-.932.19-1.847.527-2.629.89a10.42 10.42 0 0 0-.777.41c-.343.05-.72.112-1.029.228-.611.23-1.155.515-1.6.928a5.823 5.823 0 0 0-.636.662c-.462.599-.77 1.219-1.01 2.106-1.324.614-2.322 1.556-2.789 3.08-.427 1.394-.326 3.238.229 4.358.085.172.186.365.255.479a7.402 7.402 0 0 0-.004 1.095c.028.306.101.63.183.913.528 1.82 1.855 2.88 4.252 2.623.218.224.491.392.731.593.187 1.009.601 1.789 1.098 2.487-.977 1.128-.863 3.888-.092 5.179-.47.751-.957 1.932-1.028 3.217-.082 1.477.117 3.072.64 3.992-.652 1.967-.24 4.784.731 6.092-.129.799-.006 1.678.252 2.236-.12.902-.028 1.804.274 2.555.11.272.223.473.366.707 0 .262.019.557.068.799.2.98.703 1.573 1.212 2.235-.394 1.17-.433 2.49-.572 3.902-.125 1.287-.419 2.792-.091 4.106.284 1.14 1.408 1.581 2.743 1.734 1.67.191 3.696.078 3.864-1.483.117-1.097-.106-2.511-.298-3.468 1.546.387 2.523-.46 3.224-1.186.392-.407.717-.812.983-1.3.539-.992.718-2.322.937-3.628.321-1.914.636-4.002 1.052-5.795.784-.157 1.414-.548 1.92-1.004.913-.822 1.682-2.017 1.829-3.559.021-.228.03-.6.045-.775.092-.114.294-.321.389-.457.71-1.004 1.183-2.374 1.029-4.197-.026-.302-.092-.533-.16-.89.007-.344.233-.69.388-.958.427-.736.872-1.555.778-2.784-.025-.315-.107-.707-.138-.98.1-.252.298-.768.366-1.187.227-1.394-.088-2.757-.731-3.764.765-1.179.898-3.725.342-5.248 1.048-1.089 1.831-2.293 1.966-4.22.11-1.571-.287-2.764-.777-3.742-.137-.275-.303-.622-.411-.798.063-.211.251-.514.343-.662.452.408 1.015.706 1.646.935.024.223.044.47.114.685a3.115 3.115 0 0 0 3.818 1.962c.38.174.286.496.182.912-.056.228-.098.44-.137.616-.2.901-.072 1.865.206 2.624.222.605.612 1.393 1.532 1.14.277-.075.448-.369.663-.387.78-.066 1.655-.314 2.171-.707.206-.157.45-.256.595-.388.272-.248.49-.73.434-1.232" fill="color(display-p3 0.000 0.000 0.000)" mask="url(#g8utrf459b)"/>
        </g>
        <path d="M15.224 9.02c-.17.123-.377.581-.16.592.055 0-.02-.094.16-.269.144-.14.543-.31.458-.392-.12-.097-.325-.028-.458.068M20.322 7.171c.576-.924-.446-2.754-1.257-1.734.628.12.277 1.348-.183.685-.076.487.128.891.32 1.186-.824-.522-.927-3.112.572-2.829.812.154 1.183 2.02.548 2.692m-1.577-.114c.119.208.395.515.594.57.303.085.688.027.915-.09.948-.491.676-2.98-.32-3.354-.168-.064-.408-.055-.503-.046-1.112.11-1.23 1.97-.686 2.92M17.008 7.377c.632-.849-.167-2.776-1.143-1.78.615.136.162 1.342-.275.685-.081.454.013.93.229 1.163-.196-.045-.372-.413-.435-.662-.142-.566.003-1.447.32-1.825.295-.35.987-.464 1.35-.068.49.535.534 1.987-.046 2.487M15.476 4.82c-.497.779-.386 2.679.411 2.966.352.127.758.054.983-.045 1.09-.482.958-2.937.046-3.354-.18-.082-.483-.084-.617-.068-.393.043-.643.22-.823.501" fill="color(display-p3 0.000 0.000 0.000)"/>
        <path d="M16.87 10c.814.192 2.01.225 2.812 0-.396.948-2.453.825-2.812 0m3.84-.958c-.079.091.12.05.092.16-1.033.858-3.41.763-4.823.296-.211-.07-.56-.305-.597-.09-.04.233.492.288.803.433.342.16.541.497.823.707.307.229.643.4 1.12.433 1.273.091 1.484-.633 2.149-1.14.23-.177.474-.246.659-.426.08-.05.029.146.097.135.047-.008.053-.118.05-.17-.015-.237-.136-.41-.372-.338" fill="color(display-p3 0.000 0.000 0.000)"/>
    </g>
</svg>