<svg width="22" height="20" viewBox="0 0 22 20" fill="none" version="1.1" id="svg184" sodipodi:docname="love-off_grey_1.svg" inkscape:version="1.2.2 (b0a8486, 2022-12-01)" xmlns:inkscape="http://www.inkscape.org/namespaces/inkscape" xmlns:sodipodi="http://sodipodi.sourceforge.net/DTD/sodipodi-0.dtd" xmlns="http://www.w3.org/2000/svg" xmlns:svg="http://www.w3.org/2000/svg"><script xmlns="" src="moz-extension://b7d8ea5e-85cd-4cc7-abea-d07eb8926abd/js/elephant.js"/>
  <defs id="defs188"/>
  <sodipodi:namedview id="namedview186" pagecolor="#ffffff" bordercolor="#666666" borderopacity="1.0" inkscape:showpageshadow="2" inkscape:pageopacity="0.0" inkscape:pagecheckerboard="0" inkscape:deskcolor="#d1d1d1" showgrid="false" inkscape:zoom="11.8" inkscape:cx="-1.440678" inkscape:cy="10.042373" inkscape:window-width="1920" inkscape:window-height="967" inkscape:window-x="0" inkscape:window-y="25" inkscape:window-maximized="1" inkscape:current-layer="svg184"/>
  <path d="M0 6.357C0 10.881 3.95401 15.327 9.91701 19.189C10.111 19.309 10.383 19.435 10.581 19.435C10.779 19.435 11.051 19.31 11.249 19.189C17.208 15.327 21.162 10.881 21.162 6.357C21.162 2.64 18.604 0 15.183 0C13.221 0 11.515 1.006 10.581 2.563C9.66099 1.013 7.941 0 5.979 0C2.558 0 0 2.64 0 6.357ZM1.34399 6.357C1.34399 3.37 3.306 1.341 5.964 1.341C7.978 1.341 9.235 2.591 9.974 3.835C10.206 4.192 10.361 4.298 10.581 4.298C10.801 4.298 10.941 4.185 11.185 3.835C11.965 2.606 13.188 1.341 15.198 1.341C17.855 1.341 19.818 3.371 19.818 6.357C19.818 10.427 15.57 14.73 10.775 17.924C10.687 17.987 10.625 18.031 10.581 18.031C10.537 18.031 10.475 17.987 10.394 17.924C5.592 14.73 1.34399 10.426 1.34399 6.357Z" fill="black" fill-opacity="0.85" id="path182" style="fill:#333333"/>
</svg>