<svg xmlns="http://www.w3.org/2000/svg" viewBox="0 0 22 22" width="16" height="16">
  <g transform="matrix(1.3,0,0,1.3,5.49,1.09)">
    <path fill="#666666" d="m 1.8,0.7 c 0,0 0,2.3 -0.1,3 0,0.1 0,0.1 -0.1,0.1 C 1.5,3.8 1.5,3.7 1.5,3.7 1.4,2.9 1.3,0.7 1.3,0.7 c 0,-0.1 -0.1,-0.1 -0.1,0 0,0 -0.1,2.3 -0.1,3 0,0.1 0,0.1 -0.1,0.1 v 0 c 0,0 0,-0.1 0,-0.2 -0.1,-0.8 -0.1,-3 -0.1,-3 0,-0.1 -0.1,-0.1 -0.1,0 0,0 -0.1,2.3 -0.2,3 0,0.1 0,0.1 -0.1,0.1 -0.1,0 0,0 0,-0.1 0,-0.8 -0.1,-3 -0.1,-3 0,-0.1 0,-0.1 -0.1,0 0,0.8 -0.4,3.1 -0.3,3.9 0.1,0.8 0.3,1 0.4,1.2 0.3,0.3 0.5,0.7 0.5,1.3 0,1 0.1,2.5 -0.1,4.6 -0.1,1.5 -0.3,3.6 -0.1,4.6 0,0.1 0.1,0.3 0.3,0.3 h 0.2 c 0.1,0 0.3,-0.1 0.3,-0.3 0.1,-0.9 0.1,-3 -0.1,-4.6 C 1.3,9.5 1.4,8 1.4,7 1.4,6.4 1.6,6 1.8,5.7 2,5.5 2.2,5.3 2.2,4.5 2.3,3.7 1.9,1.4 1.8,0.7 c 0,-0.2 0,-0.2 0,0 z"/>
  </g>
  <g transform="matrix(1.3,0,0,1.3,-11.54,1.09)">
    <path fill="#666666" d="m 20.8,8.6 c 0,0 0,-5.5 0,-7.3 0,-0.2 0,-0.4 -0.1,-0.6 -0.1,-0.2 -0.3,-0.4 -0.6,-0.1 -1,1.3 -0.8,5.9 -0.8,6.5 0.1,0.6 0.6,1 0.6,1.3 0.1,1 -0.2,4 -0.2,5.2 0,0.6 0.1,1.8 0.2,2.3 0,0.1 0.1,0.3 0.3,0.3 h 0.3 c 0.1,0 0.3,-0.1 0.3,-0.3 0.1,-0.6 0.2,-1.8 0.2,-2.3 0,-1 -0.2,-4 -0.2,-5 z"/>
  </g>
</svg>
